<?xml version="1.0" standalone="no"?>
<!DOCTYPE svg PUBLIC "-//W3C//DTD SVG 20010904//EN"
 "http://www.w3.org/TR/2001/REC-SVG-20010904/DTD/svg10.dtd">
<svg version="1.0" xmlns="http://www.w3.org/2000/svg"
 width="600.000000pt" height="600.000000pt" viewBox="0 0 600.000000 600.000000"
 preserveAspectRatio="xMidYMid meet">

<g transform="translate(0.000000,600.000000) scale(0.100000,-0.100000)"
fill="#000000" stroke="none">
<path d="M2800 5730 c-603 -47 -1159 -269 -1613 -644 -137 -112 -333 -316
-439 -456 -269 -356 -443 -757 -517 -1192 -127 -739 82 -1531 558 -2121 l70
-87 -24 -113 c-14 -61 -34 -139 -44 -172 -11 -33 -23 -80 -26 -105 -4 -25 -20
-92 -37 -150 -17 -58 -32 -123 -33 -145 -2 -22 -8 -86 -14 -141 -8 -72 -8
-110 -1 -129 9 -25 9 -26 -5 -15 -13 11 -13 9 -5 -17 19 -52 98 -131 190 -188
l90 -55 197 0 198 0 38 79 c20 43 37 83 37 89 0 5 11 17 25 26 14 9 39 39 56
66 17 28 35 50 40 50 5 0 9 -35 9 -78 0 -44 3 -113 6 -155 l7 -77 1414 0 1415
0 -2 192 c-2 189 -2 195 26 277 16 47 34 86 41 88 19 7 61 -47 84 -109 22 -59
41 -78 77 -78 13 0 24 -11 31 -32 7 -18 21 -49 31 -68 10 -19 34 -65 53 -102
19 -37 44 -80 55 -95 10 -15 23 -38 26 -50 l7 -23 381 0 c358 0 380 1 373 17
-3 10 -9 32 -12 48 -9 57 -45 199 -56 222 -6 13 -14 23 -20 23 -5 0 -6 12 -2
28 6 27 6 27 -19 -6 -85 -115 -322 -244 -503 -276 -78 -13 -120 -11 -92 5 8 4
60 19 117 33 206 52 452 219 479 324 6 24 -9 101 -53 282 -13 52 -44 136 -68
185 -24 50 -47 104 -51 120 -3 17 -18 47 -31 68 -14 22 -29 60 -33 85 -5 26
-14 68 -21 93 l-13 45 71 95 c101 135 174 253 256 420 376 757 376 1621 0
2378 -131 265 -277 470 -484 685 -452 467 -1037 758 -1690 840 -148 19 -415
27 -550 16z m488 -979 c2 -5 10 -7 18 -4 10 4 12 0 8 -11 -3 -9 -2 -16 3 -16
5 0 18 -7 29 -15 16 -13 16 -14 2 -9 -34 12 -17 -12 64 -89 45 -43 84 -85 86
-95 9 -44 10 -62 2 -62 -4 0 -10 -7 -13 -14 -4 -10 -1 -13 8 -10 15 6 30 -30
20 -46 -9 -15 -38 25 -61 84 -14 36 -34 60 -73 92 -47 36 -59 42 -95 39 -56
-4 -96 -15 -96 -27 0 -5 -4 -6 -10 -3 -5 3 -10 1 -10 -5 0 -7 -7 -10 -15 -6
-8 3 -15 2 -15 -2 0 -4 -12 -13 -27 -19 -56 -24 -89 -49 -85 -62 3 -8 0 -11
-6 -8 -5 4 -24 2 -42 -5 -25 -8 -38 -8 -51 1 -24 14 -32 14 -23 0 4 -8 -4 -9
-27 -4 -19 4 -35 11 -37 16 -2 5 -14 1 -27 -7 -22 -14 -25 -14 -37 5 -15 25
-30 28 -21 5 5 -14 3 -15 -15 -5 -12 7 -22 8 -22 3 0 -6 -9 -12 -20 -15 -11
-3 -18 -1 -14 4 3 5 -2 9 -11 9 -11 0 -15 -5 -12 -14 7 -18 -11 -36 -29 -29
-10 4 -12 0 -8 -11 4 -11 1 -16 -10 -16 -24 0 -19 -15 9 -28 33 -15 35 -15 35
3 0 8 6 15 13 15 9 0 8 3 -2 9 -11 7 -10 10 5 15 22 6 66 2 83 -8 20 -13 72
-25 66 -16 -3 4 21 8 52 7 32 0 67 3 77 8 15 7 17 5 11 -6 -7 -11 -6 -12 6 -3
35 29 231 32 214 4 -7 -11 41 -25 68 -21 9 1 17 -3 17 -9 0 -7 6 -8 19 0 27
14 34 13 27 -6 -6 -15 -4 -15 18 0 30 19 40 21 30 5 -5 -9 1 -10 19 -5 24 6
27 4 23 -16 -2 -13 1 -31 5 -40 11 -20 39 -13 39 9 0 12 3 13 15 3 12 -10 13
-7 5 19 -4 17 -11 36 -15 43 -4 7 5 0 19 -15 14 -15 26 -23 26 -18 0 6 7 11
15 11 16 0 47 -59 38 -72 -2 -5 3 -15 11 -24 20 -20 22 -41 2 -25 -11 9 -10
-4 4 -56 20 -72 50 -350 50 -452 0 -53 -2 -61 -17 -59 -13 2 -17 -3 -16 -19 2
-15 -2 -21 -11 -17 -14 5 -30 40 -27 58 1 5 0 15 -3 23 -5 12 -9 12 -23 -2
-15 -16 -17 -16 -22 -2 -4 11 -11 13 -20 8 -7 -5 -10 -14 -6 -20 4 -7 1 -18
-5 -26 -10 -12 -10 -15 1 -15 10 -1 8 -4 -3 -11 -10 -5 -18 -18 -18 -27 0 -9
-12 -22 -26 -29 -22 -10 -25 -10 -20 3 8 20 0 17 -26 -10 -21 -22 -25 -23 -55
-10 -18 8 -33 20 -33 27 0 6 -19 24 -43 40 -84 55 -129 102 -132 139 -4 44 8
66 27 51 20 -17 120 -55 151 -57 29 -2 34 3 15 22 -9 9 -9 12 1 12 7 0 10 4 7
9 -3 4 14 11 37 14 24 3 65 16 92 27 27 12 57 19 67 17 11 -3 15 -1 11 6 -4 6
0 8 9 4 11 -4 18 2 22 18 7 26 -8 105 -25 136 -11 21 1 25 19 7 9 -9 12 -7 12
12 0 13 -3 20 -6 17 -13 -12 -44 14 -59 48 -8 21 -21 35 -31 35 -10 0 -36 11
-58 24 -35 20 -54 24 -123 23 -45 0 -79 -5 -76 -9 3 -5 -1 -8 -8 -7 -8 2 -29
-5 -47 -14 -18 -10 -37 -15 -41 -12 -5 3 -11 -1 -14 -7 -3 -9 -8 -10 -18 -3
-8 6 -21 10 -29 9 -8 -1 -25 -2 -37 -3 -12 0 -28 -8 -37 -16 -8 -8 -26 -15
-41 -15 -15 0 -33 7 -41 15 -9 8 -24 15 -35 15 -11 0 -17 5 -14 10 3 6 1 10
-4 10 -6 0 -11 -7 -11 -16 0 -8 -5 -12 -10 -9 -6 4 -16 2 -23 -3 -13 -11 -108
-9 -126 2 -6 4 -24 1 -39 -7 -18 -9 -36 -11 -50 -6 -33 12 -64 -4 -122 -62
-59 -59 -80 -100 -80 -156 0 -44 6 -55 38 -72 18 -10 27 -9 44 4 13 8 27 15
33 15 5 0 4 -4 -4 -9 -35 -22 19 -71 80 -71 40 0 70 -17 63 -35 -12 -31 73
-11 112 26 12 12 30 19 41 17 10 -1 33 7 50 20 30 21 49 63 67 143 7 33 43 45
67 23 15 -13 35 -60 50 -114 2 -8 14 -26 27 -40 12 -13 22 -33 22 -43 0 -11
20 -41 44 -68 37 -41 65 -94 54 -104 -2 -2 -25 1 -53 5 -47 8 -51 7 -77 -21
-26 -27 -31 -29 -80 -23 -29 4 -60 10 -68 14 -19 9 -69 -12 -94 -39 -19 -21
-19 -22 4 -68 21 -43 22 -48 7 -72 -8 -14 -42 -40 -74 -58 -68 -38 -88 -42
-74 -15 16 30 3 62 -25 60 -16 -2 -23 -7 -19 -16 2 -7 1 -10 -4 -7 -6 3 -14
-2 -19 -12 -8 -14 -13 -15 -25 -5 -12 10 -16 9 -21 -4 -6 -16 -8 -15 -22 4 -9
13 -20 19 -31 15 -13 -5 -15 -2 -10 11 4 11 2 16 -6 14 -6 -1 -27 6 -46 16
l-34 18 6 -24 c5 -17 1 -27 -14 -37 -12 -7 -23 -11 -25 -9 -2 2 -15 70 -29
152 -23 133 -25 173 -25 423 0 238 2 277 16 287 16 12 18 47 8 155 -4 40 -2
67 5 74 6 6 11 21 11 33 0 62 52 134 123 172 82 42 125 53 232 57 130 5 191
12 295 35 92 19 281 21 288 1z m410 -731 c-19 -31 -38 -33 -36 -5 2 19 8 25
25 25 21 0 22 -2 11 -20z m-1444 -84 c30 -27 36 -40 36 -72 l-1 -39 -19 25
c-62 78 -73 90 -87 90 -13 0 -13 3 -3 15 19 23 35 18 74 -19z m-113 -57 c-5
-13 -10 -19 -10 -12 -1 15 10 45 15 40 3 -2 0 -15 -5 -28z m1629 -85 c-14 -37
-24 -23 -15 23 5 30 9 34 16 21 6 -10 5 -27 -1 -44z m-1534 -31 c-2 -10 -12
-46 -22 -80 -9 -35 -20 -63 -24 -63 -13 0 -30 51 -30 93 l1 42 14 -30 c11 -24
14 -26 14 -10 1 24 28 65 42 65 6 0 8 -8 5 -17z m-106 -37 c0 -15 57 -145 71
-163 7 -8 17 -8 37 2 32 16 58 22 57 14 0 -3 5 -12 11 -20 6 -8 11 -42 12 -76
l2 -62 -47 14 c-60 18 -90 49 -108 111 -7 27 -20 67 -28 89 -23 63 -30 105
-18 105 6 0 11 -6 11 -14z m1635 -101 c-9 -41 -20 -73 -24 -71 -4 3 -15 -4
-25 -15 -11 -13 -26 -19 -44 -17 -26 3 -27 5 -27 63 0 51 3 60 18 59 9 -1 17
4 17 11 0 16 23 26 37 17 6 -4 13 -16 15 -27 4 -16 8 -11 23 23 9 24 20 41 22
38 3 -3 -2 -39 -12 -81z m-519 -160 c21 -19 33 -34 27 -35 -7 0 -13 6 -13 13
0 8 -3 8 -8 2 -4 -6 -14 -10 -22 -9 -8 0 -22 2 -31 2 -22 2 -32 31 -18 48 16
20 21 18 65 -21z m-640 -135 c0 -11 -6 -15 -18 -12 -10 2 -18 9 -18 14 0 5 -5
6 -12 2 -6 -4 -9 -3 -5 2 3 5 16 10 29 10 16 1 24 -4 24 -16z m414 0 c-24 -15
-36 -11 -14 4 10 8 21 12 24 10 2 -3 -2 -9 -10 -14z m-350 -24 c0 -2 -8 -10
-17 -17 -16 -13 -17 -12 -4 4 13 16 21 21 21 13z m-50 -50 c0 -2 -8 -10 -17
-17 -16 -13 -17 -12 -4 4 13 16 21 21 21 13z m350 -48 c0 -5 -16 -8 -35 -8
-19 0 -35 3 -35 8 0 4 16 7 35 7 19 0 35 -3 35 -7z m53 5 c-7 -2 -19 -2 -25 0
-7 3 -2 5 12 5 14 0 19 -2 13 -5z m-131 -58 c29 -8 50 -9 54 -4 3 5 9 7 14 4
9 -5 117 9 159 21 21 6 22 5 12 -14 -12 -23 -70 -46 -94 -36 -12 4 -17 1 -17
-11 0 -14 -3 -15 -15 -5 -12 10 -18 10 -30 0 -22 -18 -78 -6 -125 27 -41 29
-54 51 -22 38 9 -4 38 -13 64 -20z m-434 -273 c-12 -5 -10 -32 3 -32 8 0 7 -5
-2 -16 -11 -14 -11 -18 4 -29 9 -7 17 -20 17 -30 0 -15 2 -16 18 -4 14 11 15
11 5 -1 -7 -8 -13 -22 -13 -31 0 -10 6 -20 13 -23 10 -5 10 -7 0 -12 -18 -8
-16 -24 3 -24 8 0 13 -4 9 -10 -16 -25 -65 19 -65 59 0 17 -3 22 -10 15 -6 -6
-13 -64 -15 -129 -3 -65 -7 -120 -9 -122 -2 -2 -7 41 -10 95 -7 90 -5 104 15
146 18 40 21 58 16 127 -5 80 -5 81 12 53 10 -16 14 -30 9 -32z m29 -239 c8
-10 12 -12 8 -5 -7 14 10 15 40 2 18 -8 18 -9 -5 -10 l-25 -1 30 -24 c17 -14
25 -25 19 -25 -6 0 -19 9 -29 20 -10 11 -23 20 -29 20 -6 0 -17 9 -24 20 -15
25 -4 26 15 3z m33 -58 c10 -12 10 -15 -3 -15 -8 0 -17 7 -21 15 -3 8 -2 15 3
15 5 0 14 -7 21 -15z m-34 -70 c9 -8 13 -15 9 -15 -3 0 -3 -5 0 -10 4 -7 14
-6 28 1 19 8 20 8 7 -3 -17 -14 -24 -58 -10 -58 5 0 6 -8 3 -17 -5 -12 -2 -15
9 -10 10 3 24 -4 37 -19 11 -13 16 -24 9 -24 -6 0 15 -18 48 -41 32 -23 69
-50 80 -61 12 -11 28 -21 35 -22 31 -7 49 -19 49 -35 0 -9 5 -22 11 -28 8 -8
7 -17 -2 -34 l-12 -24 23 20 23 20 -5 -26 c-4 -22 -1 -25 14 -21 10 2 26 -2
36 -9 14 -11 15 -11 5 1 -15 17 -17 56 -3 65 6 3 10 -2 10 -11 0 -10 3 -14 7
-11 3 4 13 1 21 -6 13 -10 14 -9 8 1 -4 7 0 19 8 28 9 8 16 14 17 12 0 -2 2
-11 4 -21 5 -29 14 -32 29 -12 9 13 15 15 20 6 4 -6 11 -9 16 -6 8 5 31 -26
42 -56 5 -13 2 -16 -13 -12 -10 3 -19 1 -19 -4 0 -6 -13 -26 -30 -44 -17 -20
-30 -28 -30 -19 0 11 -2 12 -12 1 -11 -10 -9 -14 5 -22 12 -7 16 -18 13 -32
-3 -12 -3 -16 0 -9 5 10 9 10 20 1 11 -9 14 -8 14 4 0 9 -4 19 -10 22 -5 3
-10 13 -10 22 0 11 7 14 25 11 20 -4 23 -3 14 8 -17 21 40 18 63 -3 10 -9 18
-11 18 -5 0 6 -12 18 -27 26 -17 9 -22 16 -13 17 8 1 20 2 25 4 6 1 26 3 45 4
19 2 29 5 23 8 -21 8 -14 25 7 18 23 -7 28 10 5 19 -8 3 -15 11 -15 18 0 8 6
6 17 -5 16 -16 18 -15 41 6 17 15 13 5 -13 -31 -34 -48 -40 -52 -66 -47 -17 4
-29 2 -29 -3 0 -6 8 -12 17 -14 19 -3 -69 -110 -199 -242 -65 -65 -81 -76 -93
-66 -8 7 -15 17 -15 22 0 15 -81 125 -131 178 -47 50 -144 200 -196 303 -19
38 -41 71 -49 74 -10 4 -12 15 -7 41 3 21 7 47 7 59 1 12 4 25 8 29 4 4 5 18
1 32 -5 22 -3 24 15 20 15 -4 19 -2 15 8 -3 8 -9 14 -14 14 -5 0 -9 7 -9 15 0
8 3 15 6 15 3 0 12 -7 20 -15z m626 -421 c-20 -15 -37 -2 -29 21 5 13 10 13
26 3 18 -11 18 -13 3 -24z"/>
<path d="M2598 4473 c-10 -2 -18 -8 -18 -13 0 -4 8 -14 18 -21 9 -7 14 -10 10
-5 -4 5 -3 17 3 27 5 11 8 18 7 18 -2 -1 -11 -3 -20 -6z"/>
<path d="M2785 4470 c3 -5 8 -10 11 -10 2 0 4 5 4 10 0 6 -5 10 -11 10 -5 0
-7 -4 -4 -10z"/>
<path d="M2530 4376 c0 -18 17 -29 30 -21 8 5 7 11 -1 21 -15 18 -29 18 -29 0z"/>
<path d="M2676 4368 c7 -11 34 -10 34 1 0 6 -9 9 -19 8 -11 0 -17 -5 -15 -9z"/>
<path d="M3525 4180 c3 -5 8 -10 11 -10 2 0 4 5 4 10 0 6 -5 10 -11 10 -5 0
-7 -4 -4 -10z"/>
<path d="M3530 4133 c0 -5 5 -15 10 -23 8 -12 10 -11 10 8 0 12 -4 22 -10 22
-5 0 -10 -3 -10 -7z"/>
<path d="M3580 3721 c0 -6 4 -13 10 -16 6 -3 7 1 4 9 -7 18 -14 21 -14 7z"/>
<path d="M2769 3643 c-27 -43 -52 -93 -55 -108 -1 -5 -3 -12 -4 -15 -1 -3 -4
-15 -5 -28 -2 -23 -2 -23 16 -3 11 11 19 25 19 31 0 6 7 13 15 16 8 4 15 17
15 30 0 13 7 42 16 64 22 54 12 61 -17 13z"/>
<path d="M2376 3384 c-5 -14 -4 -15 9 -4 17 14 19 20 6 20 -5 0 -12 -7 -15
-16z"/>
<path d="M3017 2133 c-4 -6 0 -19 8 -29 11 -15 14 -16 15 -4 0 21 -16 44 -23
33z"/>
<path d="M2752 2083 c-6 -3 -10 -9 -6 -14 8 -13 -10 -11 -24 3 -9 9 -12 8 -12
-5 0 -9 5 -17 11 -17 5 0 7 -5 3 -11 -5 -8 -1 -8 13 0 18 9 20 7 16 -17 -3
-26 -3 -26 7 -4 5 13 8 28 5 32 -3 5 2 13 11 18 13 7 13 10 3 14 -8 3 -20 3
-27 1z"/>
<path d="M2786 2052 c-2 -4 4 -8 14 -8 10 0 16 4 14 8 -3 4 -9 8 -14 8 -5 0
-11 -4 -14 -8z"/>
<path d="M2843 2053 c-20 -7 -15 -28 10 -49 22 -19 22 -19 5 2 -23 26 -22 31
1 37 22 5 33 -1 50 -28 l11 -20 -2 20 c-4 31 -44 51 -75 38z"/>
<path d="M2970 2050 c0 -5 5 -10 11 -10 5 0 7 5 4 10 -3 6 -8 10 -11 10 -2 0
-4 -4 -4 -10z"/>
<path d="M3040 1984 c-20 -11 -22 -14 -6 -14 15 0 16 -3 6 -15 -10 -12 -10
-15 4 -15 9 0 16 8 16 20 0 11 7 20 15 20 8 0 15 5 15 10 0 13 -19 11 -50 -6z"/>
<path d="M2900 1985 c0 -2 9 -9 20 -15 16 -9 18 -8 14 5 -5 13 -34 22 -34 10z"/>
<path d="M2870 1953 c0 -19 21 -27 33 -13 9 10 9 11 -2 5 -8 -4 -17 -2 -22 6
-6 9 -9 10 -9 2z"/>
<path d="M2967 1910 c7 -25 23 -37 23 -17 0 8 -6 20 -14 26 -12 10 -13 8 -9
-9z"/>
<path d="M2945 1900 c-3 -5 -1 -10 4 -10 6 0 11 5 11 10 0 6 -2 10 -4 10 -3 0
-8 -4 -11 -10z"/>
<path d="M688 115 c2 -14 11 -25 19 -25 12 0 14 -9 9 -45 l-7 -45 80 0 c45 0
81 2 81 4 0 3 -33 26 -72 52 -40 27 -75 50 -78 54 -3 3 -12 11 -21 18 -14 11
-16 9 -11 -13z"/>
</g>
</svg>
